<svg width="96" height="96" viewBox="0 0 450 182" fill="none" xmlns="http://www.w3.org/2000/svg">
<path d="M189.02 67.6C189.02 75.7467 187.547 83.6333 184.6 91.26C181.827 98.7133 177.927 105.473 172.9 111.54C167.873 117.433 161.98 122.287 155.22 126.1L187.2 182H132.86L106.08 135.46H47.32V182H-5.48363e-06V2.86102e-06H121.42C139.967 2.86102e-06 155.827 6.58667 169 19.76C182.347 32.9333 189.02 48.88 189.02 67.6ZM118.56 93.34C124.973 93.34 130.433 91.0867 134.94 86.58C139.447 82.0733 141.7 76.7 141.7 70.46C141.7 64.0467 139.447 58.5867 134.94 54.08C130.433 49.5733 124.973 47.32 118.56 47.32H47.32V93.34H118.56Z" fill="#629435"/>
<path d="M299.087 54.6C294.581 49.7467 288.341 47.32 280.367 47.32C273.954 47.32 268.581 48.88 264.247 52C260.087 55.12 258.007 58.6733 258.007 62.66V182H210.687V62.66C210.687 45.3267 217.447 30.5933 230.967 18.46C244.661 6.15334 261.127 2.86102e-06 280.367 2.86102e-06C290.767 2.86102e-06 300.647 1.99334 310.007 5.98C319.367 9.96667 327.427 15.6 334.187 22.88L397.367 91H332.367L299.087 54.6ZM402.047 2.86102e-06H449.367V119.34C449.367 130.78 446.247 141.353 440.007 151.06C433.767 160.593 425.274 168.133 414.527 173.68C403.781 179.227 392.167 182 379.687 182C369.114 182 359.147 180.007 349.787 176.02C340.427 172.033 332.454 166.4 325.867 159.12L263.207 91H327.427L360.707 127.4C365.214 132.253 371.541 134.68 379.687 134.68C383.847 134.68 387.661 133.9 391.127 132.34C394.594 130.78 397.281 128.873 399.187 126.62C401.094 124.193 402.047 121.767 402.047 119.34V2.86102e-06Z" fill="#FF6BCE"/>
</svg>
